<svg version="1"
     fill="#FF2300"
     xmlns="http://www.w3.org/2000/svg"
     width="933.333"
     height="933.333"
     viewBox="0 0 700.000000 700.000000">
  <path d="M337.5 127.1c-15.6 2.6-29.3 12.6-36.1 26.4-4.4 9-4.6 9.9-5 23.6-.2 10.1.1 12.5 2.1 18.4 7.8 22.1 28.3 35 53.7 33.9 22.2-1 40.2-13.2 47.7-32.2 4.1-10.5 4.4-26.6.5-37.5-5-14.2-18.5-26.7-33.4-31.1-6.4-1.9-22.3-2.8-29.5-1.5zM1.4 288.4C5.7 302.5 93.4 563.6 94 564c.5.3 24.8.5 54.2.5l53.3-.1 4.6-13.7c2.5-7.6 4.6-13.9 4.7-14 .2-.4 1.5-4.6 13.2-40.7 6.7-20.6 12.4-38.2 12.7-39 .3-.8.7-2 .9-2.5.1-.6 1.6-5.1 3.2-10 1.6-5 9.4-28.6 17.2-52.5 7.8-23.9 17.3-53 21.1-64.5 3.7-11.6 8-24.6 9.4-29 1.4-4.4 2.8-8.7 3.1-9.5.4-.9 3.1 5.4 6.3 14.5l5.6 16L304 442l.5 122.4 44.8.1c28.8 0 45.1-.4 45.6-1 .5-.8.8-276 .2-278.5-.1-.5-188.4-.6-191.7-.1-.5 0-1.8 2.7-2.7 5.8-2.9 9.9-14.9 51.7-15.4 53.8-.3 1.1-4.4 15.3-9 31.5-4.7 16.2-8.8 30.4-9 31.5-2.4 9-17.4 60.5-18.2 62.5-.7 1.8-1 2-1 .7-.1-.9-.1-1.9-.1-2.2-.1-.3-.7-2.3-1.5-4.6-.9-2.3-1.7-5.1-2-6.3-.2-1.2-1.4-5.5-2.5-9.6s-2.2-8.2-2.5-9c-.3-1.4-6.7-24.6-20.6-74.5-2.8-9.9-6.6-23.6-8.5-30.5-1.8-6.9-3.8-13.9-4.3-15.5-.6-1.7-1.2-4.1-1.5-5.5-1.1-5.2-7.6-27.3-8.2-27.9-.3-.3-22.1-.6-48.4-.7H.2l1.2 4zM438.6 285c-.5.9.2 206.3.7 210.5 4.2 33.2 18.2 56.8 40.8 68.8 13.2 7 26.5 9.7 46.4 9.2 7.7-.2 14.9-.5 16-.8 1.1-.3 4-.8 6.3-1.2 14.4-2.4 31.3-10.2 44.2-20.4 6.2-4.9 16.6-15.7 20.2-20.9 1.7-2.4 3.4-4 3.8-3.5.7.8 11.2 31.5 11.6 34.2.2.7.7 1.8 1.3 2.4.6.6 13.4 1 35.6 1.1l34.5.1V284.4h-91v186.1l-4 6.2c-7.6 11.6-18.9 22-28.5 26.2-9.3 4.2-22.2 4.6-30.5 1-10.2-4.4-14.8-13.4-15.6-31.3-.3-6.1-.7-50.9-.7-99.6l-.2-88.5h-45.3c-24.9-.1-45.5.2-45.6.5z" />
</svg>